<svg aria-hidden="true" style="position:absolute;width:0;height:0;overflow:hidden" xmlns="http://www.w3.org/2000/svg">
  <defs>
    <symbol id="checkbox" viewBox="0 0 32 32">
      <path d="M28.444 4.333v23.333H3.555V4.333h24.889zm0-3.333H3.555C1.599 1-.001 2.5-.001 4.333v23.333c0 1.833 1.6 3.333 3.556 3.333h24.889c1.956 0 3.556-1.5 3.556-3.333V4.333C32 2.5 30.4 1 28.444 1z"/>
    </symbol>
    <symbol id="close" viewBox="0 0 32 32">
      <path d="M32 3.223 28.777 0 16 12.777 3.223 0 0 3.223 12.777 16 0 28.777 3.223 32 16 19.223 28.777 32 32 28.777 19.223 16 32 3.223z"/>
    </symbol>
    <symbol id="email-black" viewBox="0 0 32 32">
      <path d="M28 4H4a2.996 2.996 0 0 0-2.985 3L1 25c0 1.65 1.35 3 3 3h24c1.65 0 3-1.35 3-3V7c0-1.65-1.35-3-3-3zm-.6 6.375-10.605 6.63c-.48.3-1.11.3-1.59 0L4.6 10.375c-.375-.24-.6-.645-.6-1.08C4 8.29 5.095 7.69 5.95 8.215L16 14.5l10.05-6.285c.855-.525 1.95.075 1.95 1.08 0 .435-.225.84-.6 1.08z"/>
    </symbol>
    <symbol id="icon-check" viewBox="0 0 32 32">
      <path fill="#2196f3" style="fill:var(--color1, #2196f3)" d="M4 1h24a4 4 0 0 1 4 4v22a4 4 0 0 1-4 4H4a4 4 0 0 1-4-4V5a4 4 0 0 1 4-4z"/>
      <path fill="#fff" style="fill:var(--color2, #fff);stroke:var(--color2, #fff)" stroke="#fff" stroke-width=".4" d="m7.914 16.503-.138-.131-2.067 1.958 7.282 6.947 15.298-14.594-2.053-1.959-13.245 12.623-5.077-4.844z"/>
    </symbol>
    <symbol id="icon-send" viewBox="0 0 32 32">
      <path fill="#fff" style="fill:var(--color2, #fff)" d="M32 0 0 18l10.227 3.788L26 7 14.002 23.186l.01.004-.012-.004V32l5.735-6.691L27 28l5-28z"/>
    </symbol>
    <symbol id="menu_24px" viewBox="0 0 32 32">
      <path d="M0 8.889V5.333h32v3.556H0zm0 8.889h32v-3.556H0v3.556zm0 8.889h32v-3.556H0v3.556z"/>
    </symbol>
    <symbol id="person-black" viewBox="0 0 32 32">
      <path d="M16 16c4.42 0 8-3.58 8-8s-3.58-8-8-8-8 3.58-8 8 3.58 8 8 8zm0 4c-5.34 0-16 2.68-16 8v2c0 1.1.9 2 2 2h28c1.1 0 2-.9 2-2v-2c0-5.32-10.66-8-16-8z"/>
    </symbol>
    <symbol id="phone-black" viewBox="0 0 32 32">
      <path d="m27.419 20.852-4.202-.48a3.294 3.294 0 0 0-2.713.943l-3.044 3.044A24.888 24.888 0 0 1 6.559 13.458l3.06-3.06a3.293 3.293 0 0 0 .943-2.713l-.48-4.168A3.31 3.31 0 0 0 6.79.589H3.928C2.059.589.504 2.144.62 4.013c.877 14.126 12.174 25.408 26.284 26.284 1.869.116 3.424-1.439 3.424-3.308v-2.861c.016-1.671-1.241-3.077-2.911-3.275z"/>
    </symbol>
    <symbol id="Client-1" viewBox="0 0 60 32">
      <path d="m24.533 7.111 2.598 2.46h7.248v6.861l2.598 2.46V7.111H24.533z"/>
      <path d="M22.4 9.467v11.444h12.089v-4.549L27.208 9.47 22.4 9.467zm9.786 9.771h-7.873v-7.697h.556v7.176h7.317v.521zM25.881 23.034l.291-.599h.243l-.424.799v.465h-.22v-.465l-.424-.799h.244l.291.599zm1.249.371h-.49l-.102.294h-.228l.477-1.264h.197l.478 1.264h-.229l-.103-.294zm-.428-.177h.366l-.183-.524-.183.524zm1.293.13c0-.058.016-.112.048-.161s.095-.107.188-.174c-.049-.062-.084-.115-.103-.158s-.029-.085-.029-.126c0-.099.03-.177.09-.234s.141-.087.243-.087c.092 0 .167.027.226.082s.089.121.089.201c0 .053-.013.101-.04.146s-.07.088-.131.132l-.086.063.244.288a.508.508 0 0 0 .053-.232h.183a.632.632 0 0 1-.109.383l.186.22h-.245l-.071-.084c-.09.068-.198.102-.323.102s-.225-.033-.3-.099a.331.331 0 0 1-.112-.26zm.418.19a.326.326 0 0 0 .2-.071l-.276-.326-.027.019c-.069.053-.104.113-.104.181 0 .058.019.106.056.142s.088.055.151.055zm-.116-.814c0 .049.03.11.089.183l.096-.066.027-.022a.157.157 0 0 0 .054-.122c0-.033-.012-.061-.037-.084s-.056-.036-.095-.036c-.041 0-.074.014-.098.042s-.036.063-.036.105zm2.296.554c-.013.135-.063.24-.149.316s-.202.113-.346.113a.46.46 0 0 1-.444-.275.733.733 0 0 1-.065-.306v-.118c0-.119.021-.224.063-.315a.478.478 0 0 1 .455-.284c.14 0 .252.038.337.114s.135.183.148.321h-.219c-.01-.091-.037-.156-.08-.196s-.104-.061-.187-.061c-.095 0-.169.035-.22.105s-.077.172-.078.306v.112c0 .137.024.241.073.313s.121.108.215.108c.086 0 .151-.019.194-.058s.071-.103.082-.194h.219zm1.206-.188c0 .124-.021.233-.064.326a.486.486 0 0 1-.458.29c-.102 0-.194-.025-.274-.075s-.142-.122-.186-.214a.768.768 0 0 1-.066-.32v-.071c0-.123.022-.232.065-.326a.492.492 0 0 1 .459-.292.5.5 0 0 1 .273.075c.08.049.142.12.185.213s.065.201.066.324v.07zm-.22-.066c0-.14-.027-.247-.08-.322s-.128-.112-.225-.112c-.095 0-.169.037-.223.112s-.08.179-.082.315v.073c0 .139.027.246.081.322s.13.114.226.114c.097 0 .172-.037.224-.111s.079-.182.079-.325v-.066z"/>
    </symbol>
    <symbol id="Client-2" viewBox="0 0 60 32">
      <path d="M29.147 7.799h.049c.09 0 .187.009.283.017.424.03.845.093 1.259.19V6.988a7.506 7.506 0 0 0-1.3-.207 9.488 9.488 0 0 0-.525-.025h-.152c-.88.003-1.756.116-2.608.336-.971.242-1.902.621-2.768 1.126v10.097a11.224 11.224 0 0 1 2.638-1.028 11.508 11.508 0 0 1 2.214-.34h.03c.125-.006.25-.01.379-.011v-1.034c-.971.012-1.937.141-2.878.382-.348.09-.684.188-1 .297l-.36.122V8.831l.154-.074a10.057 10.057 0 0 1 3.771-.954c.143-.007.287-.011.428-.011h.162c.075.002.149.004.224.008z"/>
      <path d="M31.684 8.865a9.303 9.303 0 0 1-1.505-.122 8.306 8.306 0 0 1-.47-.095v9.981c.647.16 1.312.239 1.979.233a10.67 10.67 0 0 0 2.608-.335 10.57 10.57 0 0 0 2.769-1.126V7.484c-.833.452-1.719.798-2.637 1.029-.896.23-1.817.348-2.742.352zm3.991.173.36-.121v7.875l-.154.074a9.849 9.849 0 0 1-1.84.661 9.59 9.59 0 0 1-2.354.305 8.1 8.1 0 0 1-.702-.03l-.246-.022V9.682l.287.019c.209.014.425.02.659.02a12.206 12.206 0 0 0 2.989-.383c.336-.089.669-.188 1-.299zM24.084 21.764a.53.53 0 0 0-.4-.162.607.607 0 0 0-.231.043.515.515 0 0 0-.296.299.588.588 0 0 0-.041.223v1.349a.643.643 0 0 0 .053.277.482.482 0 0 0 .32.277.762.762 0 0 0 .201.028.56.56 0 0 0 .516-.353.53.53 0 0 0 .043-.215v-.151h-.353v.12a.307.307 0 0 1-.021.12.221.221 0 0 1-.051.076.268.268 0 0 1-.148.052.182.182 0 0 1-.165-.073.319.319 0 0 1-.047-.181v-1.258a.44.44 0 0 1 .043-.202c.018-.028.044-.051.075-.066s.064-.02.098-.016c.03-.001.061.005.088.018s.051.033.069.057c.039.052.06.116.058.181v.117h.349v-.137a.633.633 0 0 0-.161-.426zM26.179 21.749a.626.626 0 0 0-.401-.148.6.6 0 0 0-.396.148.56.56 0 0 0-.137.189.617.617 0 0 0-.051.261v1.294a.636.636 0 0 0 .051.265.53.53 0 0 0 .137.181.55.55 0 0 0 .186.114.604.604 0 0 0 .611-.114.542.542 0 0 0 .133-.181.62.62 0 0 0 .051-.265v-1.294a.584.584 0 0 0-.184-.45zm-.164 1.744a.236.236 0 0 1-.07.188.258.258 0 0 1-.332 0 .236.236 0 0 1-.07-.188v-1.294a.236.236 0 0 1 .07-.188.258.258 0 0 1 .332 0 .236.236 0 0 1 .07.188v1.294zM28.931 24.071v-2.449h-.339l-.445 1.297h-.006l-.449-1.297h-.335v2.449h.35v-1.49h.006l.343 1.053h.174l.345-1.053h.006v1.49h.35zM30.918 21.793a.498.498 0 0 0-.198-.134.783.783 0 0 0-.254-.038h-.52v2.449h.349v-.957h.18a.638.638 0 0 0 .315-.067.522.522 0 0 0 .192-.187.586.586 0 0 0 .08-.213c.014-.092.02-.185.019-.278a1.42 1.42 0 0 0-.034-.35.519.519 0 0 0-.129-.225zm-.18.747a.336.336 0 0 1-.032.128.197.197 0 0 1-.09.086.36.36 0 0 1-.165.031h-.159v-.833h.18a.327.327 0 0 1 .157.031.199.199 0 0 1 .082.09.375.375 0 0 1 .031.137v.163c0 .057.004.116 0 .168h-.004zM32.572 21.622h-.286l-.54 2.449h.349l.103-.526h.476l.103.526h.349l-.553-2.449zm-.322 1.589.172-.888h.006l.171.888h-.349zM34.827 23.097h-.006l-.527-1.476h-.335v2.449h.349v-1.473h.007l.533 1.473h.328v-2.449h-.349v1.476zM36.959 21.622l-.281.974h-.007l-.281-.974h-.37l.479 1.414v1.035h.349v-1.035l.479-1.414h-.369zM23.111 24.762h.168v.472h.114v-.472h.167v-.097h-.45v.097zM24.525 24.666l-.22.569h.121l.047-.129h.227l.049.129h.124l-.226-.569h-.121zm-.018.343.077-.211.077.211h-.155zM25.923 25.025h.131v.073a.214.214 0 0 1-.135.048c-.023.001-.046-.003-.067-.012s-.039-.024-.054-.042a.237.237 0 0 1-.042-.148c0-.127.055-.19.164-.19.029-.003.057.005.081.021s.041.041.048.069l.112-.022c-.024-.111-.104-.167-.241-.167a.287.287 0 0 0-.199.073.275.275 0 0 0-.082.218.31.31 0 0 0 .073.213c.028.029.062.051.099.065s.077.02.117.018a.342.342 0 0 0 .241-.09v-.224h-.246v.096zM27.35 24.666h-.115v.569h.398v-.097h-.283v-.472zM28.557 24.666h-.115v.569h.115v-.569zM29.737 25.046l-.233-.38h-.112v.569h.107v-.372l.228.372h.114v-.569h-.105v.38zM30.804 24.984h.283v-.097h-.283v-.125h.305v-.097h-.42v.569h.432v-.097h-.317v-.154zM33.391 24.89h-.224v-.224h-.114v.569h.114v-.249h.224v.249h.114v-.569h-.114v.224zM34.464 24.984h.284v-.097h-.284v-.125h.306v-.097h-.42v.569h.431v-.097h-.317v-.154zM35.919 24.984c.099-.015.149-.068.149-.158.003-.024-.001-.049-.011-.071s-.025-.041-.045-.056a.318.318 0 0 0-.166-.033h-.241v.569h.114v-.238h.022a.145.145 0 0 1 .071.013c.017.01.031.025.041.042l.124.181h.137l-.069-.111a.404.404 0 0 0-.126-.137zm-.115-.079h-.084v-.143h.09a.285.285 0 0 1 .116.014c.008.007.015.017.019.027s.006.021.006.032a.073.073 0 0 1-.031.057.327.327 0 0 1-.116.014zM37.017 24.984h.283v-.097h-.283v-.125h.306v-.097h-.421v.569h.432v-.097h-.316v-.154z"/>
    </symbol>
    <symbol id="Client-3" viewBox="0 0 60 32">
      <path d="M25.367 23.394c.005 0 .011.001.015.003s.009.005.013.009l.073.077a.604.604 0 0 1-.206.146.727.727 0 0 1-.292.052.711.711 0 0 1-.274-.049.592.592 0 0 1-.341-.351.773.773 0 0 1-.047-.273.739.739 0 0 1 .05-.274.642.642 0 0 1 .142-.213.654.654 0 0 1 .22-.139.799.799 0 0 1 .283-.049.704.704 0 0 1 .262.044c.072.03.139.072.197.123l-.061.082a.046.046 0 0 1-.016.015c-.007.005-.016.007-.025.006s-.019-.004-.027-.009l-.033-.022-.046-.028a.597.597 0 0 0-.253-.058.537.537 0 0 0-.203.037.454.454 0 0 0-.262.267.592.592 0 0 0-.037.216.636.636 0 0 0 .037.22c.022.06.057.116.102.163a.414.414 0 0 0 .152.101c.06.024.124.035.188.035a.702.702 0 0 0 .112-.007.42.42 0 0 0 .241-.112.05.05 0 0 1 .035-.014zM27.48 23.008a.742.742 0 0 1-.049.271c-.03.079-.077.15-.138.21s-.135.107-.216.138a.817.817 0 0 1-.556 0 .627.627 0 0 1-.354-.352.77.77 0 0 1 0-.543.623.623 0 0 1 .139-.213.627.627 0 0 1 .215-.133.805.805 0 0 1 .556 0 .609.609 0 0 1 .354.349.71.71 0 0 1 .049.273zm-.192 0a.623.623 0 0 0-.035-.218.43.43 0 0 0-.253-.266.585.585 0 0 0-.404 0 .43.43 0 0 0-.254.266.692.692 0 0 0 0 .436.45.45 0 0 0 .099.163.44.44 0 0 0 .155.102c.13.046.274.046.404 0a.427.427 0 0 0 .253-.265.623.623 0 0 0 .035-.218zM28.921 23.237l.019.049a2.405 2.405 0 0 1 .045-.097l.467-.809c.009-.014.017-.023.027-.025a.097.097 0 0 1 .038-.004h.138v1.316h-.164V22.613l-.47.821c-.006.012-.016.023-.028.03s-.026.011-.04.011h-.027c-.014 0-.028-.004-.04-.011s-.022-.018-.027-.03l-.484-.826v1.057h-.158v-1.314h.138a.12.12 0 0 1 .038.004c.011.005.02.014.026.025l.477.81a.416.416 0 0 1 .024.047zM30.68 23.171v.493h-.183v-1.315h.408a.797.797 0 0 1 .228.029.44.44 0 0 1 .161.082.33.33 0 0 1 .091.129.424.424 0 0 1 .031.168.373.373 0 0 1-.133.3.446.446 0 0 1-.162.087.684.684 0 0 1-.22.03l-.221-.003zm0-.141h.221a.456.456 0 0 0 .142-.02.277.277 0 0 0 .102-.057.232.232 0 0 0 .062-.087.282.282 0 0 0 .022-.111.244.244 0 0 0-.082-.197.371.371 0 0 0-.246-.071h-.221v.542zM33.138 23.666h-.145a.07.07 0 0 1-.04-.012.086.086 0 0 1-.024-.03l-.124-.318h-.625l-.129.318a.076.076 0 0 1-.023.03.061.061 0 0 1-.041.013h-.145l.549-1.317h.19l.556 1.317zm-.905-.489h.516l-.218-.536a.9.9 0 0 1-.041-.124l-.021.069c-.006.021-.014.04-.02.056l-.216.535zM33.928 22.356c.011.006.02.014.027.024l.8.992V22.35h.164v1.317h-.091c-.013 0-.026-.002-.037-.008s-.021-.015-.029-.024l-.799-.992v1.023h-.164v-1.317h.097c.011 0 .023.002.033.006zM36.268 23.143v.523h-.183v-.523l-.506-.793h.164a.06.06 0 0 1 .039.011c.01.008.019.018.025.03l.316.512a.765.765 0 0 1 .056.117l.024-.057a.425.425 0 0 1 .031-.06l.312-.515a.127.127 0 0 1 .024-.028.056.056 0 0 1 .039-.013h.166l-.507.796zM28.831 20.14c.08.01.16.017.241.024 1.234-.526 2.278-1.387 3.001-2.475s1.094-2.355 1.066-3.643l-1.36-1.296c.276 1.371.147 2.788-.374 4.093s-1.412 2.446-2.575 3.296z"/>
      <path d="m28.345 20.08.037.007c1.242-.847 2.19-2.029 2.719-3.394s.617-2.85.251-4.263l-1.937-1.845c.783 1.517 1.099 3.215.909 4.895s-.876 3.276-1.979 4.6zM34.914 15.568a6.683 6.683 0 0 1-2.279 3.639 7.271 7.271 0 0 1-1.083.741c.937-.262 1.798-.726 2.517-1.356s1.277-1.408 1.63-2.276l-.786-.748z"/>
      <path d="m34.606 15.36-1.118-1.066c-.021 1.215-.384 2.402-1.05 3.438s-1.611 1.884-2.737 2.454h.005c.251 0 .502-.014.751-.043 1.052-.409 1.982-1.06 2.706-1.895s1.22-1.827 1.443-2.889zM28.507 9.806l-1.334-1.273c-1.193.439-2.219 1.211-2.943 2.215s-1.114 2.193-1.118 3.411c.004 1.346.48 2.653 1.352 3.712s2.089 1.812 3.46 2.139c1.224-1.421 1.94-3.176 2.045-5.011s-.407-3.654-1.461-5.193zM37.689 15.164c-.005-1.597-.673-3.128-1.858-4.257s-2.792-1.766-4.468-1.771a6.51 6.51 0 0 0-2.265.402l8.17 7.783a5.72 5.72 0 0 0 .422-2.157z"/>
    </symbol>
    <symbol id="Client-4" viewBox="0 0 60 32">
      <path d="M20.41 13.095h-.001c-.804 0-1.456.635-1.456 1.419v.001c0 .784.652 1.419 1.456 1.419h.001c.804 0 1.456-.635 1.456-1.419v-.001c0-.784-.652-1.419-1.456-1.419zM31.16 12.642c-.002-1.089-.447-2.132-1.237-2.902s-1.861-1.204-2.978-1.206c-1.118.002-2.189.435-2.979 1.205s-1.235 1.814-1.238 2.903v6.004s8.43-.915 8.431-6.003v-.001zM16 20.616c.002.758.312 1.484.861 2.019s1.294.838 2.072.84c.777-.002 1.522-.304 2.071-.84s.859-1.261.862-2.019v-4.178S16 17.075 16 20.615zm2.933.748c-.152 0-.3-.044-.427-.126a.746.746 0 0 1-.327-.768c.03-.145.103-.279.21-.383a.778.778 0 0 1 1.182.114.738.738 0 0 1-.095.947.786.786 0 0 1-.545.22v-.003zM24.921 20.9h-.6v.62h-.313v-1.517h.988v.253h-.675v.392h.6v.252zm1.502-.104c0 .149-.026.28-.079.393s-.128.199-.227.26a.625.625 0 0 1-.338.092c-.126 0-.238-.03-.336-.091s-.175-.147-.229-.258a.889.889 0 0 1-.082-.388v-.075c0-.149.027-.281.08-.394a.595.595 0 0 1 .565-.353.62.62 0 0 1 .336.092c.099.06.175.148.228.261s.081.244.081.393v.068zm-.317-.069c0-.159-.028-.28-.085-.363s-.138-.124-.244-.124c-.105 0-.186.041-.243.123s-.086.201-.086.358v.074c0 .155.028.275.085.36s.139.128.246.128c.105 0 .185-.041.242-.123s.085-.203.085-.36v-.074zm1.33.395c0-.059-.021-.104-.063-.135s-.117-.065-.225-.1a1.588 1.588 0 0 1-.257-.104c-.172-.093-.258-.218-.258-.376 0-.082.023-.155.069-.219s.113-.115.199-.151c.087-.036.184-.054.292-.054s.205.02.29.059a.436.436 0 0 1 .268.41h-.313c0-.069-.022-.123-.066-.161s-.105-.058-.184-.058c-.076 0-.136.016-.178.049s-.064.074-.064.127c0 .049.025.091.074.124s.123.065.22.094c.178.053.307.12.389.199s.122.178.122.296c0 .131-.05.234-.149.309s-.233.111-.401.111c-.117 0-.223-.021-.319-.064s-.169-.102-.22-.176a.45.45 0 0 1-.075-.258h.314c0 .167.1.251.3.251.074 0 .132-.015.174-.045s.063-.073.063-.127zm1.668-.866h-.465v1.264h-.313v-1.264h-.458v-.253h1.235v.253zm1.092.607h-.6v.406h.704v.251h-1.017v-1.517h1.015v.253h-.702v.361h.6v.245zm.848.102h-.249v.555h-.313v-1.517h.564c.179 0 .317.04.415.12s.146.193.146.339c0 .103-.023.19-.068.259s-.112.124-.203.165l.328.62v.015h-.335l-.284-.555zm-.248-.254h.252c.078 0 .139-.02.182-.059s.065-.096.065-.166c0-.072-.02-.128-.061-.169s-.102-.061-.186-.061h-.251v.455zm1.893.274v.534h-.313v-1.517h.592c.114 0 .214.021.3.063a.469.469 0 0 1 .27.439c0 .149-.051.266-.153.352s-.242.128-.422.128h-.274zm0-.253h.279c.083 0 .145-.019.189-.058s.066-.094.066-.167c0-.074-.022-.134-.066-.18s-.104-.069-.181-.071h-.286v.476zm1.977.131h-.6v.406h.704v.251h-1.017v-1.517h1.015v.253h-.702v.361h.6v.245zm1.45-.607h-.464v1.264h-.313v-1.264h-.458v-.253h1.235v.253zm1.092.607h-.6v.406h.704v.251h-1.017v-1.517h1.015v.253h-.702v.361h.6v.245zm.849.102h-.249v.555h-.313v-1.517h.564c.179 0 .318.04.415.12s.146.193.146.339c0 .103-.022.19-.068.259s-.112.124-.203.165l.328.62v.015h-.336l-.284-.555zm-.249-.254h.252c.079 0 .139-.02.182-.059s.064-.096.064-.166c0-.072-.02-.128-.061-.169s-.102-.061-.187-.061h-.251v.455zm1.836.411c0-.059-.021-.104-.063-.135s-.117-.065-.225-.1a1.588 1.588 0 0 1-.257-.104c-.172-.093-.258-.218-.258-.376 0-.082.023-.155.069-.219s.113-.115.199-.151c.087-.036.184-.054.292-.054s.205.02.289.059a.436.436 0 0 1 .268.41h-.313c0-.069-.022-.123-.065-.161s-.105-.058-.185-.058c-.076 0-.136.016-.178.049s-.064.074-.064.127c0 .049.025.091.074.124.05.033.123.065.22.094.178.053.308.12.389.199s.122.178.122.296c0 .131-.05.234-.149.309s-.233.111-.401.111c-.117 0-.223-.021-.319-.064s-.169-.102-.22-.176a.45.45 0 0 1-.075-.258h.313c0 .167.1.251.3.251.074 0 .132-.015.174-.045s.063-.073.063-.127z"/>
    </symbol>
    <symbol id="Client-5" viewBox="0 0 60 32">
      <path d="M21.507 21.788a.559.559 0 0 1 .123.359.576.576 0 0 1-.191.454.829.829 0 0 1-.554.166h-.974V20.49h.954a.814.814 0 0 1 .529.151.515.515 0 0 1 .185.426.526.526 0 0 1-.111.348.52.52 0 0 1-.29.178.555.555 0 0 1 .329.195zm-1.143-.344h.408a.381.381 0 0 0 .259-.076.274.274 0 0 0 .088-.223.277.277 0 0 0-.086-.223.394.394 0 0 0-.267-.077h-.401v.597zm.707.873a.286.286 0 0 0 .096-.231.284.284 0 0 0-.098-.233.418.418 0 0 0-.277-.082h-.428v.626h.433a.426.426 0 0 0 .274-.079zM23.457 22.767l-.531-.89h-.199v.89h-.456V20.49h.864a.85.85 0 0 1 .602.194.732.732 0 0 1 .064.942.699.699 0 0 1-.412.231l.565.91h-.496zm-.73-1.201h.373c.259 0 .389-.115.389-.345.003-.047-.004-.094-.021-.138s-.042-.084-.074-.118a.402.402 0 0 0-.294-.092h-.378l.004.693zM25.952 22.308h-.91l-.161.458h-.479l.835-2.252h.517l.832 2.252h-.479l-.157-.458zm-.122-.345-.332-.961-.332.961h.665zM29.076 22.767h-.453l-1.016-1.549v1.549h-.452V20.49h.452l1.016 1.558V20.49h.453v2.277zM31.662 22.222a.98.98 0 0 1-.41.402 1.34 1.34 0 0 1-.637.144h-.807v-2.277h.807c.221-.006.439.042.637.14a.969.969 0 0 1 .41.397 1.331 1.331 0 0 1 0 1.194zm-.519-.055a.837.837 0 0 0 0-1.086.785.785 0 0 0-.567-.194h-.315v1.474h.315a.785.785 0 0 0 .567-.194zM26.236 7.822s5.849 2.217 5.725 5.426v5.427s-5.845-2.218-5.723-5.427l-.002-5.426zM37.173 17.404a7.998 7.998 0 0 1 3.716-1.375V14.33a7.629 7.629 0 0 0-3.716 3.074z"/>
      <path d="M36.509 17.916a7.959 7.959 0 0 1 4.38-3.942V9.079s-8.33 3.158-8.154 7.728v7.726s.371-.141.955-.406c0-.247 0-.496.027-.747a8.04 8.04 0 0 1 2.792-5.465z"/>
      <path d="M35.717 20.786a8.016 8.016 0 0 1 .291-1.582 7.481 7.481 0 0 0-1.764 4.667 24.023 24.023 0 0 0 1.602-.848 7.996 7.996 0 0 1-.129-2.237zM36.048 20.814a7.687 7.687 0 0 0 .103 2.026c2.276-1.367 4.833-3.48 4.735-6.033v-.223a7.458 7.458 0 0 0-4.33 2.031 7.652 7.652 0 0 0-.508 2.198z"/>
    </symbol>
    <symbol id="Client-6" viewBox="0 0 60 32">
      <path d="M30.485 15.415a1.155 1.155 0 0 1-.203-.731v-1.06c0-.325.067-.572.202-.741s.365-.253.693-.252c.308 0 .526.072.655.216a.938.938 0 0 1 .194.634v.249h-.55v-.252a1.361 1.361 0 0 0-.016-.247.246.246 0 0 0-.079-.147.294.294 0 0 0-.199-.057.32.32 0 0 0-.21.06.285.285 0 0 0-.091.162 1.357 1.357 0 0 0-.022.262v1.287a.707.707 0 0 0 .071.361c.027.038.065.069.11.088s.094.026.142.02c.07.005.14-.015.195-.058a.262.262 0 0 0 .082-.156c.013-.085.019-.172.017-.258v-.261h.55v.238a1.04 1.04 0 0 1-.19.667c-.126.157-.342.236-.659.236s-.556-.084-.692-.259zM32.777 15.425c-.139-.165-.209-.406-.209-.724v-1.115c0-.315.069-.553.209-.715s.371-.242.697-.242c.324 0 .555.081.694.242s.21.4.21.715v1.116c0 .315-.071.557-.212.723s-.371.249-.692.249c-.32 0-.557-.084-.697-.248zm.954-.267a.674.674 0 0 0 .066-.33v-1.366a.664.664 0 0 0-.065-.324c-.028-.039-.067-.07-.112-.089s-.096-.026-.145-.019a.276.276 0 0 0-.258.108.639.639 0 0 0-.066.324v1.372a.661.661 0 0 0 .066.33.34.34 0 0 0 .257.111.356.356 0 0 0 .257-.111v-.006zM35.04 12.662h.593l.446 2.058.456-2.058h.577l.058 2.971h-.426l-.045-2.065-.44 2.065h-.342l-.456-2.072-.042 2.072h-.431l.054-2.971zM37.833 12.662h.923c.532 0 .797.281.797.844 0 .539-.28.808-.84.807h-.314v1.32h-.57l.004-2.971zm.789 1.269a.41.41 0 0 0 .313-.093.518.518 0 0 0 .082-.335 1.024 1.024 0 0 0-.027-.27.231.231 0 0 0-.114-.142.538.538 0 0 0-.254-.047h-.221v.888h.221zM40.375 12.662h.612l.628 2.971h-.531l-.124-.685h-.546l-.128.685h-.539l.628-2.971zm.523 1.941-.213-1.247-.213 1.247h.426zM42.122 12.662h.399l.763 1.695v-1.695h.473v2.971h-.379l-.768-1.769v1.769h-.489l.001-2.971zM44.865 14.5l-.635-1.834h.534l.388 1.178.363-1.178h.523l-.627 1.834v1.133h-.547V14.5zM31.365 16.931v.155H30.9v1.207h-.195v-1.207h-.467v-.155h1.127zM32.823 18.294h-.15a.064.064 0 0 1-.042-.013.075.075 0 0 1-.025-.031l-.134-.324h-.645l-.134.324a.102.102 0 0 1-.02.037.064.064 0 0 1-.042.013h-.15l.57-1.362h.198l.577 1.357zm-.944-.506h.538l-.228-.555a1.007 1.007 0 0 1-.042-.128l-.022.072-.02.057-.226.553zM33.805 18.16a.56.56 0 0 0 .198-.016.596.596 0 0 0 .082-.025l.076-.033v-.306h-.228c-.006 0-.011 0-.017-.002s-.01-.005-.014-.008-.007-.007-.009-.011-.003-.009-.003-.014v-.105h.442v.522c-.036.024-.074.046-.114.065s-.083.035-.126.046a.99.99 0 0 1-.142.028 1.539 1.539 0 0 1-.166.009.78.78 0 0 1-.287-.051.69.69 0 0 1-.228-.142.663.663 0 0 1-.199-.499.773.773 0 0 1 .051-.285.633.633 0 0 1 .375-.357.88.88 0 0 1 .305-.051c.053 0 .106.004.158.012a.715.715 0 0 1 .349.16l-.055.084c-.004.008-.011.014-.019.019s-.017.007-.026.007a.06.06 0 0 1-.035-.011.928.928 0 0 1-.056-.032.533.533 0 0 0-.181-.067.878.878 0 0 0-.145-.012.61.61 0 0 0-.22.038.467.467 0 0 0-.273.277.693.693 0 0 0 0 .454.502.502 0 0 0 .28.28.574.574 0 0 0 .226.027zM35.621 18.138h.622v.155h-.812V16.93h.195l-.005 1.207zM36.891 18.294h-.195v-1.363h.195v1.363zM37.616 16.938a.088.088 0 0 1 .029.025l.833 1.027a.4.4 0 0 1 0-.049v-1.015h.17v1.368h-.098a.085.085 0 0 1-.042-.008.13.13 0 0 1-.031-.026l-.832-1.026v1.059h-.163V16.93h.101c.011 0 .022.002.032.006zM40.083 16.931v.15h-.691v.45h.56v.145h-.56v.465h.691v.15h-.891v-1.359h.891zM19.663 8.517l8.652 2.326v8.15l-8.652-2.325V8.517zm-.555-.695v9.242l9.761 2.625v-9.241l-9.761-2.626z"/>
      <path d="m24.34 23.979-9.762-2.627v-9.241l9.762 2.626v9.242z"/>
      <path d="m19.27 8.412 8.54 2.297-3.632 3.439-8.541-2.298 3.633-3.438zm-.162-.59-4.531 4.289 9.762 2.626 4.53-4.289-9.761-2.626zM24.889 23.459l3.98-3.769-3.98-1.071v4.84z"/>
    </symbol>
    <symbol id="facebook" viewBox="0 0 32 32">
      <path d="M21.329 5.313h2.921V.225C23.746.156 22.013 0 19.994 0c-4.212 0-7.097 2.649-7.097 7.519V12H8.249v5.688h4.648V32h5.699V17.689h4.46l.708-5.688h-5.169V8.082c.001-1.644.444-2.769 2.735-2.769z"/>
    </symbol>
    <symbol id="instagram" viewBox="0 0 32 32">
      <path d="M31.969 9.408c-.075-1.7-.35-2.869-.744-3.882a7.803 7.803 0 0 0-1.85-2.838A7.867 7.867 0 0 0 26.543.844C25.524.45 24.361.175 22.661.1 20.948.019 20.404 0 16.06 0s-4.888.019-6.595.094c-1.7.075-2.869.35-3.882.744a7.803 7.803 0 0 0-2.838 1.85A7.867 7.867 0 0 0 .901 5.52C.507 6.539.232 7.702.157 9.402c-.081 1.713-.1 2.257-.1 6.601s.019 4.888.094 6.595c.075 1.7.35 2.869.744 3.882a7.895 7.895 0 0 0 1.85 2.838 7.867 7.867 0 0 0 2.832 1.844c1.019.394 2.182.669 3.882.744 1.706.075 2.25.094 6.595.094s4.888-.019 6.595-.094c1.7-.075 2.869-.35 3.882-.744a8.184 8.184 0 0 0 4.682-4.682c.394-1.019.669-2.182.744-3.882.075-1.707.094-2.251.094-6.595s-.006-4.888-.081-6.595zm-2.882 13.065c-.069 1.563-.331 2.407-.55 2.969a5.31 5.31 0 0 1-3.038 3.038c-.563.219-1.413.481-2.969.55-1.688.075-2.194.094-6.464.094s-4.782-.019-6.464-.094c-1.563-.069-2.407-.331-2.969-.55a4.926 4.926 0 0 1-1.838-1.194 4.974 4.974 0 0 1-1.194-1.838c-.219-.563-.481-1.413-.55-2.969-.075-1.688-.094-2.194-.094-6.464s.019-4.782.094-6.464c.069-1.563.331-2.407.55-2.969a4.868 4.868 0 0 1 1.2-1.838A4.974 4.974 0 0 1 6.639 3.55c.563-.219 1.413-.481 2.969-.55 1.688-.075 2.194-.094 6.464-.094 4.276 0 4.782.019 6.464.094 1.563.069 2.407.331 2.969.55a4.914 4.914 0 0 1 1.838 1.194 4.974 4.974 0 0 1 1.194 1.838c.219.563.481 1.413.55 2.969.075 1.688.094 2.194.094 6.464s-.019 4.77-.094 6.458z"/>
      <path d="M16.059 7.783c-4.538 0-8.22 3.682-8.22 8.22s3.682 8.22 8.22 8.22 8.22-3.682 8.22-8.22-3.682-8.22-8.22-8.22zm0 13.552a5.333 5.333 0 0 1 0-10.664 5.333 5.333 0 0 1 0 10.664zM26.524 7.458a1.919 1.919 0 1 1-3.838 0 1.919 1.919 0 0 1 3.838 0z"/>
    </symbol>
    <symbol id="linkedin" viewBox="0 0 32 32">
      <path d="M31.992 32v-.001H32V20.263c0-5.741-1.236-10.164-7.948-10.164-3.227 0-5.392 1.771-6.276 3.449h-.093v-2.913h-6.364v21.364h6.627V21.42c0-2.785.528-5.479 3.977-5.479 3.399 0 3.449 3.179 3.449 5.657v10.401h6.62zM.528 10.636h6.635V32H.528V10.636zM3.843 0C1.722 0 0 1.721 0 3.843s1.721 3.879 3.843 3.879c2.121 0 3.843-1.757 3.843-3.879A3.846 3.846 0 0 0 3.843 0z"/>
    </symbol>
    <symbol id="twitter" viewBox="0 0 32 32">
      <path d="M32 6.078c-1.19.522-2.458.868-3.78 1.036a6.523 6.523 0 0 0 2.886-3.626 13.11 13.11 0 0 1-4.16 1.588A6.574 6.574 0 0 0 22.154 3c-3.632 0-6.556 2.948-6.556 6.562 0 .52.044 1.02.152 1.496-5.454-.266-10.28-2.88-13.522-6.862a6.605 6.605 0 0 0-.898 3.316 6.57 6.57 0 0 0 2.914 5.452 6.479 6.479 0 0 1-2.964-.808v.072c0 3.188 2.274 5.836 5.256 6.446a6.548 6.548 0 0 1-1.72.216 5.8 5.8 0 0 1-1.242-.112c.85 2.598 3.262 4.508 6.13 4.57a13.182 13.182 0 0 1-8.134 2.798c-.538 0-1.054-.024-1.57-.09A18.469 18.469 0 0 0 10.064 29c12.072 0 18.672-10 18.672-18.668 0-.29-.01-.57-.024-.848A13.087 13.087 0 0 0 32 6.078z"/>
    </symbol>
    <symbol id="mail" viewBox="0 0 43 32">
      <path d="M38.667 0H4C1.794 0 0 1.794 0 4v24c0 2.206 1.794 4 4 4h34.667c2.206 0 4-1.794 4-4V4c0-2.206-1.794-4-4-4zm0 2.667c.181 0 .353.038.511.103L21.334 18.236 3.49 2.77a1.32 1.32 0 0 1 .511-.103h34.667zm0 26.666H4A1.334 1.334 0 0 1 2.667 28V5.587L20.46 21.008a1.335 1.335 0 0 0 1.748 0L40.001 5.587V28c0 .736-.598 1.333-1.333 1.333z"/>
    </symbol>
    <symbol id="phone" viewBox="0 0 20 32">
      <path d="M17 0H3C1.346 0 0 1.346 0 3v26c0 1.654 1.346 3 3 3h14c1.654 0 3-1.346 3-3V3c0-1.654-1.346-3-3-3zM3 2h14a1 1 0 0 1 1 1v21H2V3a1 1 0 0 1 1-1zm14 28H3a1 1 0 0 1-1-1v-3h16v3a1 1 0 0 1-1 1z"/>
      <path d="M4.707 27.478c.391.365.391.956 0 1.321s-1.024.365-1.414 0c-.391-.365-.391-.956 0-1.321s1.024-.365 1.414 0z"/>
    </symbol>
    <symbol id="antenna" viewBox="0 0 32 32">
      <path fill="#212121" style="fill:var(--color3, #212121)" d="m30.773 22.098-8.443-8.505.937-4.615c.242.094.499.144.758.146h.006a2.159 2.159 0 1 0-2.008-1.435l-4.96.605L8.972.161a.534.534 0 0 0-.377-.16.532.532 0 0 0-.373.155L6.709 1.66a.534.534 0 0 0 0 .754l.814.826a14.943 14.943 0 0 0 2.519 17.663.513.513 0 0 0 .146.098c-.034.18-.051.364-.052.547v6.187h-6.4a2.67 2.67 0 0 0-2.667 2.667v1.067c0 .295.239.533.533.533h24.533a.533.533 0 0 0 .533-.533v-1.067a2.67 2.67 0 0 0-2.667-2.667h-6.4v-2.742a15.09 15.09 0 0 0 3.049.32 14.854 14.854 0 0 0 7.04-1.783l.818.823a.534.534 0 0 0 .377.16.532.532 0 0 0 .373-.155l1.512-1.504a.534.534 0 0 0 0-.754zM23.28 6.233a1.066 1.066 0 1 1 .752 1.822h-.003a1.067 1.067 0 0 1-.747-1.823h-.002zm-1.256 3.505-.598 2.946-1.175-1.182 1.774-1.763zm-.606-.902-1.92 1.909-1.485-1.493 3.405-.415zM24.004 28.8a1.6 1.6 0 0 1 1.6 1.6v.533H2.137V30.4a1.6 1.6 0 0 1 1.6-1.6h20.267zm-7.467-2.133v1.067h-5.333v-1.067h5.333zM11.204 25.6v-4.053c0-1.294 1.196-2.347 2.667-2.347s2.667 1.053 2.667 2.347V25.6h-5.333zm6.4-1.696v-2.357c0-1.882-1.675-3.413-3.733-3.413a3.8 3.8 0 0 0-3.281 1.786A13.87 13.87 0 0 1 8.311 4.033l18.602 18.708a13.818 13.818 0 0 1-9.309 1.163zm11.289-.684L7.836 2.039l.755-.752 7.935 7.98c.004 0 .006.007.01.01l13.115 13.191-.757.752z"/>
      <path fill="#2196f3" style="fill:var(--color1, #2196f3)" d="M13.876 20.267h-.005a1.6 1.6 0 1 0-.004 3.2h.005a1.6 1.6 0 1 0 .004-3.2zm.373 1.978a.533.533 0 1 1-.378-.911.534.534 0 0 1 .374.911h.005z"/>
    </symbol>
    <symbol id="astronaut" viewBox="0 0 34 32">
      <path fill="#2196f3" style="fill:var(--color1, #2196f3)" d="M31.975 4.28a.506.506 0 0 0-.407-.343l-1.807-.263-.809-1.638c-.169-.345-.735-.345-.905 0l-.809 1.638-1.807.263a.504.504 0 0 0-.28.86l1.308 1.275-.309 1.8a.505.505 0 0 0 .732.531l1.616-.85 1.616.85a.504.504 0 0 0 .732-.531l-.309-1.8 1.308-1.275a.506.506 0 0 0 .127-.517zm-2.329 1.255a.505.505 0 0 0-.145.447l.181 1.054-.946-.497a.501.501 0 0 0-.47 0l-.947.497.181-1.054a.507.507 0 0 0-.145-.447l-.766-.747 1.058-.154a.505.505 0 0 0 .38-.276l.473-.959.473.959a.505.505 0 0 0 .38.276l1.058.154-.765.747zM26.451 19.413h-1.009v1.009h1.009v-1.009zM26.451 21.431h-1.009v1.009h1.009v-1.009zM27.46 20.422h-1.009v1.009h1.009v-1.009zM25.442 20.422h-1.009v1.009h1.009v-1.009zM22.919 24.963H21.91v1.009h1.009v-1.009zM22.919 26.981H21.91v1.009h1.009v-1.009zM23.928 25.972h-1.009v1.009h1.009v-1.009zM21.91 25.972h-1.009v1.009h1.009v-1.009zM16.865 22.945h-1.009v1.009h1.009v-1.009zM16.865 24.963h-1.009v1.009h1.009v-1.009zM17.874 23.953h-1.009v1.009h1.009v-1.009z"/>
      <path fill="#2196f3" style="fill:var(--color1, #2196f3)" d="M15.856 23.953h-1.009v1.009h1.009v-1.009zM7.279 5.791H6.27V6.8h1.009V5.791zM7.279 7.809H6.27v1.009h1.009V7.809zM8.288 6.8H7.279v1.009h1.009V6.8zM6.27 6.8H5.261v1.009H6.27V6.8z"/>
      <path fill="#212121" style="fill:var(--color3, #212121)" d="M25.109 13.394a1.675 1.675 0 0 0-1.124-.666 1.677 1.677 0 0 0-1.267.333l-1.185.908-1.795 1.341-1.285-.512c2.29-1.028 3.891-3.319 3.891-5.979 0-3.616-2.954-6.559-6.585-6.559S9.174 5.202 9.174 8.819c0 1.311.392 2.53 1.059 3.555l-2.614-.023h-.005c-.008 0-.015.004-.022.005a.498.498 0 0 0-.147.029c-.012.005-.025.007-.036.013l-.018.006-3.058 1.51h-.001l-1.791.861a.446.446 0 0 0-.06.033 1.684 1.684 0 0 0 .433 3.012 1.68 1.68 0 0 0 1.304-.122L5.531 17l2.142-1.106 1.284-.008-5.148 5.123-.002.001-1.266 1.261c-.299.298-.464.693-.464 1.114s.164.817.464 1.115c.307.306.711.459 1.115.459s.808-.153 1.116-.459l1.243-1.238 1.647-1.23.852.849-1.666 1.659-.002.001-1.266 1.261c-.299.298-.464.693-.464 1.114s.165.817.464 1.115c.307.306.712.459 1.116.459s.809-.153 1.117-.459l3.293-3.279.001-.002.955-.946-.004-.004c.006-.006.015-.008.021-.015l4.887-5.352 3.283.467a.513.513 0 0 0 .248-.031c.017-.006.031-.014.047-.022.018-.009.037-.014.055-.026l3.04-2.018c.011-.008.017-.02.028-.028.012-.01.027-.014.038-.024l1.203-1.127a1.682 1.682 0 0 0 .2-2.234zM3.745 16.81a.675.675 0 0 1-.528.049.677.677 0 0 1-.201-1.192l1.243-.598.425 1.242-.938.499zm3.308-1.729-1.465.757-.415-1.214 1.917-.947-.037 1.404zm14.283-6.263c0 .869-.207 1.688-.567 2.421l-3.955-1.797a1.76 1.76 0 0 0-.746-1.313l1.385-4.598c2.249.715 3.883 2.814 3.883 5.286zm-11.151 0c0-3.06 2.501-5.55 5.576-5.55.239 0 .473.02.705.049l-1.355 4.497c-.018-.001-.035-.006-.054-.006-.977 0-1.771.792-1.771 1.766s.795 1.766 1.771 1.766c.657 0 1.224-.363 1.531-.894l3.654 1.66a5.576 5.576 0 0 1-4.481 2.261c-3.074 0-5.576-2.49-5.576-5.55zm5.634.757c0 .417-.342.757-.762.757s-.762-.34-.762-.757.342-.757.762-.757.762.34.762.757zM4.061 23.787a.576.576 0 0 1-.808.001.565.565 0 0 1 0-.799l.91-.907.805.802-.907.903zm3.04 3.532a.576.576 0 0 1-.809.001.565.565 0 0 1 0-.799l.911-.907.806.802-.908.903zm3.294-3.282-.002.001-1.669 1.665-.806-.802 1.668-1.66.002-.001a.484.484 0 0 0 .085-.128c.007-.013.019-.024.025-.038.016-.039.018-.081.024-.122.003-.023.013-.045.013-.069 0-.034-.012-.067-.019-.1-.006-.03-.006-.061-.018-.09a.515.515 0 0 0-.086-.13c-.01-.011-.013-.025-.024-.036h-.001l-.001-.002-1.52-1.514c-.016-.016-.037-.023-.055-.036a.49.49 0 0 0-.082-.055.485.485 0 0 0-.088-.031.537.537 0 0 0-.097-.019.45.45 0 0 0-.09.005.53.53 0 0 0-.098.019c-.032.01-.06.026-.089.042-.019.011-.04.014-.058.027l-1.677 1.252-.852-.849 2.269-2.257 4.125 4.057-.877.869zm6.45-6.637c-.015-.002-.028.004-.043.003a.5.5 0 0 0-.283.071.485.485 0 0 0-.079.058c-.012.011-.027.016-.038.028l-4.444 4.868-4.094-4.027 2.68-2.666a.506.506 0 0 0-.359-.862l-2.099.013.026-1.521 2.936.025a6.574 6.574 0 0 0 4.712 1.987 6.61 6.61 0 0 0 1.21-.116c.038.03.075.061.123.08l2.279.908.144.717.168.837-2.84-.404zm3.823.168-.296-1.474 1.368-1.022.896 1.189-1.968 1.307zm3.551-2.678-.793.743-.881-1.169.787-.603a.692.692 0 0 1 .514-.135.675.675 0 0 1 .373 1.165z"/>
      <path fill="#212121" style="fill:var(--color3, #212121)" d="m14.597 17.542-2.027-2.018a.505.505 0 0 0-.712 0l-2.027 2.018a.505.505 0 0 0 0 .716l2.027 2.018a.504.504 0 0 0 .712 0l2.027-2.018a.506.506 0 0 0 0-.716zm-2.383 1.664L10.902 17.9l1.312-1.306 1.312 1.306-1.312 1.306zM17.966 4.797l-.244.98c.067.017 1.644.427 1.644 2.033h1.009c0-1.908-1.576-2.805-2.409-3.013zM20.375 8.818h-1.009v1.009h1.009V8.818z"/>
    </symbol>
    <symbol id="clock" viewBox="0 0 32 32">
      <path fill="#212121" style="fill:var(--color3, #212121)" d="M31.297 15.301C31.295 6.849 24.442-.002 15.989 0S.686 6.855.688 15.308a15.304 15.304 0 0 0 10.649 14.576.668.668 0 0 0 .53-.065.637.637 0 0 0 .283-.356l3.865-12.25a1.912 1.912 0 1 0-.84-3.635l-5.106-5.107a.637.637 0 0 0-.902.902l5.103 5.109a1.876 1.876 0 0 0 .536 2.309l-3.683 11.673C3.845 25.783.119 17.71 2.8 10.432S13.554-.572 20.832 2.109c7.278 2.681 11.004 10.754 8.324 18.032a14.042 14.042 0 0 1-7.462 7.973l-.398-1.874a.638.638 0 0 0-1.048-.344l-3.837 3.426a.637.637 0 0 0 .231 1.084l4.899 1.563a.638.638 0 0 0 .819-.74l-.391-1.839a15.255 15.255 0 0 0 9.329-14.089zm-15.305-.637a.638.638 0 1 1 0 1.277.638.638 0 0 1 0-1.277zm2.101 14.864 2.184-1.948.603 2.84-2.787-.892z"/>
      <path fill="#2196f3" style="fill:var(--color1, #2196f3)" d="M15.354 3.185V4.46a.638.638 0 1 0 1.276 0V3.185a.638.638 0 0 0-1.276 0zM3.876 14.664a.638.638 0 0 0 0 1.276h1.275a.638.638 0 1 0 0-1.276H3.876zM28.108 15.939a.638.638 0 1 0 0-1.276h-1.275a.638.638 0 0 0 0 1.276h1.275z"/>
    </symbol>
    <symbol id="diagram" viewBox="0 0 32 32">
      <path fill="#2196f3" style="fill:var(--color1, #2196f3)" d="M14.926 14.965h1.066v4.798h-1.066v-4.797zM19.19 17.097h1.066v2.665H19.19v-2.665zM10.661 18.696h1.066v1.066h-1.066v-1.066zM7.463 18.163h1.066v1.599H7.463v-1.599z"/>
      <path fill="#212121" style="fill:var(--color3, #212121)" d="M1.599 28.291h25.587a1.6 1.6 0 0 0 1.599-1.599V24.56a1.6 1.6 0 0 0-1.599-1.599h-.533V9.668L29.681 6.8a1.608 1.608 0 1 0-.746-.763L26.654 8.2V6.97a1.6 1.6 0 0 0-1.599-1.599H3.733A1.6 1.6 0 0 0 2.134 6.97v15.992h-.533a1.6 1.6 0 0 0-1.599 1.599v2.132a1.6 1.6 0 0 0 1.599 1.599zM30.384 4.837a.533.533 0 1 1 0 1.067.533.533 0 0 1 0-1.067zM3.198 6.969c0-.294.239-.533.533-.533h21.322c.294 0 .533.239.533.533v2.239l-1.066 1.013V8.035a.533.533 0 0 0-.533-.533H4.797a.533.533 0 0 0-.533.533v13.326c0 .294.239.533.533.533h19.19a.533.533 0 0 0 .533-.533v-9.674l1.066-1.01v12.284H3.198V6.969zm4.798 6.93a1.598 1.598 0 1 0 1.107 2.749l1.853.93a.532.532 0 0 0 .636-.123l3.939-4.431 3.872 2.901a.533.533 0 0 0 .686-.039l3.365-3.188v8.131H5.33V8.569h18.124v2.66l-3.771 3.572-3.904-2.927a.533.533 0 0 0-.718.072l-3.993 4.493-1.493-.746c.011-.064.018-.129.02-.193a1.6 1.6 0 0 0-1.599-1.599zm.533 1.599a.533.533 0 1 1-1.067 0 .533.533 0 0 1 1.067 0zm3.198 8.528h5.331v.533a.533.533 0 0 1-.533.533h-4.264a.533.533 0 0 1-.533-.533v-.533zm-10.661.534c0-.294.239-.533.533-.533h9.062v.533a1.6 1.6 0 0 0 1.599 1.599h4.264a1.6 1.6 0 0 0 1.599-1.599v-.533h9.062c.294 0 .533.239.533.533v2.132a.533.533 0 0 1-.533.533H1.598a.533.533 0 0 1-.533-.533V24.56z"/>
    </symbol>
  </defs>
</svg>
